<mxfile host="app.diagrams.net" modified="2024-06-02T21:39:16.721Z" agent="Mozilla/5.0 (Windows NT 10.0; Win64; x64) AppleWebKit/537.36 (KHTML, like Gecko) Chrome/125.0.0.0 Safari/537.36 Edg/125.0.0.0" etag="sPO9X095sHyaD_TESgOX" version="24.4.13" type="device">
  <diagram id="R2lEEEUBdFMjLlhIrx00" name="Page-1">
    <mxGraphModel dx="1242" dy="582" grid="1" gridSize="10" guides="1" tooltips="1" connect="1" arrows="1" fold="1" page="1" pageScale="1" pageWidth="850" pageHeight="1100" math="0" shadow="0" extFonts="Permanent Marker^https://fonts.googleapis.com/css?family=Permanent+Marker">
      <root>
        <mxCell id="0" />
        <mxCell id="1" parent="0" />
        <mxCell id="JwdWgJcwXFqElutiA5cO-13" value="" style="edgeStyle=orthogonalEdgeStyle;rounded=0;orthogonalLoop=1;jettySize=auto;html=1;endArrow=none;endFill=0;" parent="1" source="JwdWgJcwXFqElutiA5cO-11" target="JwdWgJcwXFqElutiA5cO-12" edge="1">
          <mxGeometry relative="1" as="geometry" />
        </mxCell>
        <mxCell id="JwdWgJcwXFqElutiA5cO-17" value="" style="edgeStyle=orthogonalEdgeStyle;rounded=0;orthogonalLoop=1;jettySize=auto;html=1;endArrow=none;endFill=0;" parent="1" source="JwdWgJcwXFqElutiA5cO-11" target="JwdWgJcwXFqElutiA5cO-16" edge="1">
          <mxGeometry relative="1" as="geometry" />
        </mxCell>
        <mxCell id="JwdWgJcwXFqElutiA5cO-19" value="" style="edgeStyle=orthogonalEdgeStyle;rounded=0;orthogonalLoop=1;jettySize=auto;html=1;endArrow=none;endFill=0;" parent="1" source="JwdWgJcwXFqElutiA5cO-11" target="JwdWgJcwXFqElutiA5cO-18" edge="1">
          <mxGeometry relative="1" as="geometry">
            <Array as="points">
              <mxPoint x="200" y="130" />
            </Array>
          </mxGeometry>
        </mxCell>
        <mxCell id="JwdWgJcwXFqElutiA5cO-11" value="Comenzi" style="rounded=0;whiteSpace=wrap;html=1;" parent="1" vertex="1">
          <mxGeometry x="340" y="100" width="120" height="60" as="geometry" />
        </mxCell>
        <mxCell id="JwdWgJcwXFqElutiA5cO-15" value="" style="edgeStyle=orthogonalEdgeStyle;rounded=0;orthogonalLoop=1;jettySize=auto;html=1;endArrow=none;endFill=0;" parent="1" source="JwdWgJcwXFqElutiA5cO-12" target="JwdWgJcwXFqElutiA5cO-14" edge="1">
          <mxGeometry relative="1" as="geometry" />
        </mxCell>
        <mxCell id="JwdWgJcwXFqElutiA5cO-12" value="Bauturi" style="rounded=0;whiteSpace=wrap;html=1;" parent="1" vertex="1">
          <mxGeometry x="540" y="270" width="120" height="60" as="geometry" />
        </mxCell>
        <mxCell id="JwdWgJcwXFqElutiA5cO-14" value="Produse" style="rounded=0;whiteSpace=wrap;html=1;" parent="1" vertex="1">
          <mxGeometry x="540" y="430" width="120" height="60" as="geometry" />
        </mxCell>
        <mxCell id="JwdWgJcwXFqElutiA5cO-23" value="" style="edgeStyle=orthogonalEdgeStyle;rounded=0;orthogonalLoop=1;jettySize=auto;html=1;endArrow=none;endFill=0;" parent="1" source="JwdWgJcwXFqElutiA5cO-16" target="JwdWgJcwXFqElutiA5cO-22" edge="1">
          <mxGeometry relative="1" as="geometry" />
        </mxCell>
        <mxCell id="JwdWgJcwXFqElutiA5cO-16" value="Angajati" style="rounded=0;whiteSpace=wrap;html=1;" parent="1" vertex="1">
          <mxGeometry x="340" y="270" width="120" height="60" as="geometry" />
        </mxCell>
        <mxCell id="JwdWgJcwXFqElutiA5cO-21" value="" style="edgeStyle=orthogonalEdgeStyle;rounded=0;orthogonalLoop=1;jettySize=auto;html=1;endArrow=none;endFill=0;" parent="1" source="JwdWgJcwXFqElutiA5cO-18" target="JwdWgJcwXFqElutiA5cO-20" edge="1">
          <mxGeometry relative="1" as="geometry" />
        </mxCell>
        <mxCell id="JwdWgJcwXFqElutiA5cO-18" value="Clienti" style="rounded=0;whiteSpace=wrap;html=1;" parent="1" vertex="1">
          <mxGeometry x="140" y="270" width="120" height="60" as="geometry" />
        </mxCell>
        <mxCell id="JwdWgJcwXFqElutiA5cO-20" value="Plati" style="rounded=0;whiteSpace=wrap;html=1;" parent="1" vertex="1">
          <mxGeometry x="140" y="430" width="120" height="60" as="geometry" />
        </mxCell>
        <mxCell id="JwdWgJcwXFqElutiA5cO-22" value="Zile_lucrate" style="rounded=0;whiteSpace=wrap;html=1;" parent="1" vertex="1">
          <mxGeometry x="340" y="430" width="120" height="60" as="geometry" />
        </mxCell>
        <mxCell id="JwdWgJcwXFqElutiA5cO-26" value="M(1)" style="text;html=1;align=center;verticalAlign=middle;resizable=0;points=[];autosize=1;strokeColor=none;fillColor=none;" parent="1" vertex="1">
          <mxGeometry x="590" y="240" width="50" height="30" as="geometry" />
        </mxCell>
        <mxCell id="JwdWgJcwXFqElutiA5cO-29" value="M(1)" style="text;html=1;align=center;verticalAlign=middle;resizable=0;points=[];autosize=1;strokeColor=none;fillColor=none;" parent="1" vertex="1">
          <mxGeometry x="190" y="240" width="50" height="30" as="geometry" />
        </mxCell>
        <mxCell id="JwdWgJcwXFqElutiA5cO-30" value="1" style="text;html=1;align=center;verticalAlign=middle;resizable=0;points=[];autosize=1;strokeColor=none;fillColor=none;" parent="1" vertex="1">
          <mxGeometry x="305" y="128" width="30" height="30" as="geometry" />
        </mxCell>
        <mxCell id="JwdWgJcwXFqElutiA5cO-31" value="1" style="text;html=1;align=center;verticalAlign=middle;resizable=0;points=[];autosize=1;strokeColor=none;fillColor=none;" parent="1" vertex="1">
          <mxGeometry x="460" y="128" width="30" height="30" as="geometry" />
        </mxCell>
        <mxCell id="JwdWgJcwXFqElutiA5cO-33" value="M(0)" style="text;html=1;align=center;verticalAlign=middle;resizable=0;points=[];autosize=1;strokeColor=none;fillColor=none;" parent="1" vertex="1">
          <mxGeometry x="395" y="158" width="50" height="30" as="geometry" />
        </mxCell>
        <mxCell id="JwdWgJcwXFqElutiA5cO-34" value="M(0)" style="text;html=1;align=center;verticalAlign=middle;resizable=0;points=[];autosize=1;strokeColor=none;fillColor=none;" parent="1" vertex="1">
          <mxGeometry x="390" y="400" width="50" height="30" as="geometry" />
        </mxCell>
        <mxCell id="JwdWgJcwXFqElutiA5cO-35" value="M(1)" style="text;html=1;align=center;verticalAlign=middle;resizable=0;points=[];autosize=1;strokeColor=none;fillColor=none;" parent="1" vertex="1">
          <mxGeometry x="390" y="330" width="50" height="30" as="geometry" />
        </mxCell>
        <mxCell id="JwdWgJcwXFqElutiA5cO-36" value="M(0)" style="text;html=1;align=center;verticalAlign=middle;resizable=0;points=[];autosize=1;strokeColor=none;fillColor=none;" parent="1" vertex="1">
          <mxGeometry x="560" y="400" width="50" height="30" as="geometry" />
        </mxCell>
        <mxCell id="JwdWgJcwXFqElutiA5cO-37" value="M(1)" style="text;html=1;align=center;verticalAlign=middle;resizable=0;points=[];autosize=1;strokeColor=none;fillColor=none;" parent="1" vertex="1">
          <mxGeometry x="560" y="328" width="50" height="30" as="geometry" />
        </mxCell>
        <mxCell id="JwdWgJcwXFqElutiA5cO-38" value="M(1)" style="text;html=1;align=center;verticalAlign=middle;resizable=0;points=[];autosize=1;strokeColor=none;fillColor=none;" parent="1" vertex="1">
          <mxGeometry x="190" y="400" width="50" height="30" as="geometry" />
        </mxCell>
        <mxCell id="JwdWgJcwXFqElutiA5cO-39" value="1" style="text;html=1;align=center;verticalAlign=middle;resizable=0;points=[];autosize=1;strokeColor=none;fillColor=none;" parent="1" vertex="1">
          <mxGeometry x="200" y="330" width="30" height="30" as="geometry" />
        </mxCell>
        <mxCell id="JwdWgJcwXFqElutiA5cO-41" value="fac" style="text;html=1;align=center;verticalAlign=middle;resizable=0;points=[];autosize=1;strokeColor=none;fillColor=none;" parent="1" vertex="1">
          <mxGeometry x="400" y="190" width="40" height="30" as="geometry" />
        </mxCell>
        <mxCell id="JwdWgJcwXFqElutiA5cO-42" value="contin" style="text;html=1;align=center;verticalAlign=middle;resizable=0;points=[];autosize=1;strokeColor=none;fillColor=none;" parent="1" vertex="1">
          <mxGeometry x="600" y="370" width="60" height="30" as="geometry" />
        </mxCell>
        <mxCell id="JwdWgJcwXFqElutiA5cO-43" value="plaseaza" style="text;html=1;align=center;verticalAlign=middle;resizable=0;points=[];autosize=1;strokeColor=none;fillColor=none;" parent="1" vertex="1">
          <mxGeometry x="195" y="188" width="70" height="30" as="geometry" />
        </mxCell>
        <mxCell id="JwdWgJcwXFqElutiA5cO-44" value="1" style="text;html=1;align=center;verticalAlign=middle;resizable=0;points=[];autosize=1;strokeColor=none;fillColor=none;" parent="1" vertex="1">
          <mxGeometry x="405" y="240" width="30" height="30" as="geometry" />
        </mxCell>
        <mxCell id="JwdWgJcwXFqElutiA5cO-45" value="includ" style="text;html=1;align=center;verticalAlign=middle;resizable=0;points=[];autosize=1;strokeColor=none;fillColor=none;" parent="1" vertex="1">
          <mxGeometry x="600" y="188" width="50" height="30" as="geometry" />
        </mxCell>
        <mxCell id="JwdWgJcwXFqElutiA5cO-46" value="au" style="text;html=1;align=center;verticalAlign=middle;resizable=0;points=[];autosize=1;strokeColor=none;fillColor=none;" parent="1" vertex="1">
          <mxGeometry x="395" y="360" width="40" height="30" as="geometry" />
        </mxCell>
        <mxCell id="JwdWgJcwXFqElutiA5cO-47" value="efectueaza" style="text;html=1;align=center;verticalAlign=middle;resizable=0;points=[];autosize=1;strokeColor=none;fillColor=none;" parent="1" vertex="1">
          <mxGeometry x="190" y="360" width="80" height="30" as="geometry" />
        </mxCell>
      </root>
    </mxGraphModel>
  </diagram>
</mxfile>
